<svg width="22" height="21" viewBox="0 0 22 21" fill="none" xmlns="http://www.w3.org/2000/svg">
<path d="M1 1H2.96558C3.84304 1 4.28176 1 4.61206 1.2288C4.94236 1.4576 5.0811 1.85761 5.35858 2.65762L6.04487 4.63636" stroke="#282525" stroke-width="1.66667" stroke-linecap="round"/>
<path d="M18.657 16.7576H6.73967C6.55528 16.7576 6.46309 16.7576 6.39315 16.7501C5.65207 16.6703 5.1444 15.9934 5.30004 15.2925C5.31472 15.2263 5.34388 15.1423 5.40218 14.9742C5.46692 14.7875 5.49928 14.6942 5.53505 14.6119C5.90116 13.7688 6.7294 13.1949 7.67747 13.1278C7.77007 13.1212 7.87243 13.1212 8.07714 13.1212H14.8734" stroke="#282525" stroke-width="1.66667" stroke-linecap="round" stroke-linejoin="round"/>
<path d="M14.4681 13.1212H10.6326C9.01922 13.1212 8.21253 13.1212 7.58073 12.7209C6.94894 12.3205 6.63118 11.6079 5.99562 10.1827L5.7827 9.70523C4.76176 7.41571 4.25128 6.27097 4.81203 5.45367C5.37277 4.63638 6.66866 4.63638 9.26041 4.63638H15.9208C18.8203 4.63638 20.2701 4.63638 20.8169 5.54197C21.3638 6.44756 20.6444 7.65734 19.2059 10.0769L18.8483 10.6783C18.1395 11.8702 17.7852 12.4662 17.198 12.7937C16.6108 13.1212 15.8966 13.1212 14.4681 13.1212Z" stroke="#282525" stroke-width="1.66667" stroke-linecap="round"/>
<path d="M18.0264 21C18.7229 21 19.2876 20.4573 19.2876 19.7879C19.2876 19.1184 18.7229 18.5757 18.0264 18.5757C17.3298 18.5757 16.7651 19.1184 16.7651 19.7879C16.7651 20.4573 17.3298 21 18.0264 21Z" fill="#282525"/>
<path d="M7.93669 21C8.63324 21 9.19791 20.4573 9.19791 19.7879C9.19791 19.1184 8.63324 18.5757 7.93669 18.5757C7.24014 18.5757 6.67548 19.1184 6.67548 19.7879C6.67548 20.4573 7.24014 21 7.93669 21Z" fill="#282525"/>
</svg>
