<svg width="75" height="74" viewBox="0 0 75 74" fill="none" xmlns="http://www.w3.org/2000/svg">
<path d="M23.3856 23.6623C20.2859 22.7767 18.3118 24.4003 17.7121 25.3228C17.1586 24.9907 17.0203 24.0774 17.0203 23.6623C15.0276 23.505 15.452 27.1946 15.9132 29.059L14.5295 27.6752C16.0793 34.7601 12.2232 36.4391 10.1014 36.3929C17.297 30.9963 8.85605 26.1141 14.3911 22.1402C18.1273 19.4578 22.0479 21.9557 23.3856 23.6623Z" fill="#E7CE79"/>
<path d="M5.11992 36.2546C5.78413 38.8007 9.82472 38.5147 11.762 38.0535C8.57934 42.3432 3.87454 39.8524 3.04428 36.8081L2.49077 37.6384C2.04797 34.7601 0.645756 32.1956 0 31.273C2.9059 32.6568 3.32103 29.9815 3.32103 28.0904C5.09225 30.9686 8.21033 29.5664 9.54797 28.5055C10.1015 33.2103 4.28966 33.0719 5.11992 36.2546Z" fill="#E7CE79"/>
<path d="M23.3856 70.7911C20.2859 71.6768 18.3118 70.0531 17.7121 69.1306C17.1586 69.4627 17.0203 70.376 17.0203 70.7911C15.0276 70.9485 15.452 67.2589 15.9132 65.3945L14.5295 66.7782C16.0793 59.6934 12.2232 58.0144 10.1014 58.0605C17.297 63.4572 8.85605 68.3394 14.3911 72.3133C18.1273 74.9956 22.0479 72.4978 23.3856 70.7911Z" fill="#E7CE79"/>
<path d="M5.11992 58.1989C5.78413 55.6528 9.82472 55.9387 11.762 56.4C8.57934 52.1103 3.87454 54.6011 3.04428 57.6454L2.49077 56.8151C2.04797 59.6934 0.645756 62.2579 0 63.1804C2.9059 61.7967 3.32103 64.472 3.32103 66.3631C5.09225 63.4849 8.21033 64.8871 9.54797 65.948C10.1015 61.2432 4.28966 61.3815 5.11992 58.1989Z" fill="#E7CE79"/>
<path d="M51.6145 23.6623C54.7141 22.7767 56.6883 24.4003 57.2879 25.3228C57.8414 24.9907 57.9798 24.0774 57.9798 23.6623C59.9724 23.505 59.5481 27.1946 59.0868 29.059L60.4706 27.6752C58.9208 34.7601 62.7768 36.4391 64.8986 36.3929C57.703 30.9963 66.144 26.1141 60.609 22.1402C56.8728 19.4578 52.9521 21.9557 51.6145 23.6623Z" fill="#E7CE79"/>
<path d="M69.8801 36.2546C69.2159 38.8007 65.1753 38.5147 63.2381 38.0535C66.4207 42.3432 71.1255 39.8524 71.9558 36.8081L72.5093 37.6384C72.9521 34.7601 74.3543 32.1956 75.0001 31.273C72.0942 32.6568 71.679 29.9815 71.679 28.0904C69.9078 30.9686 66.7897 29.5664 65.4521 28.5055C64.8986 33.2103 70.7104 33.0719 69.8801 36.2546Z" fill="#E7CE79"/>
<path d="M51.6145 70.7911C54.7141 71.6768 56.6883 70.0531 57.2879 69.1306C57.8414 69.4627 57.9798 70.376 57.9798 70.7911C59.9724 70.9485 59.5481 67.2589 59.0868 65.3945L60.4706 66.7782C58.9208 59.6934 62.7768 58.0144 64.8986 58.0605C57.703 63.4572 66.144 68.3394 60.609 72.3133C56.8728 74.9956 52.9521 72.4978 51.6145 70.7911Z" fill="#E7CE79"/>
<path d="M69.8801 58.1989C69.2159 55.6528 65.1753 55.9387 63.2381 56.4C66.4207 52.1103 71.1255 54.6011 71.9558 57.6454L72.5093 56.8151C72.9521 59.6934 74.3543 62.2579 75.0001 63.1804C72.0942 61.7967 71.679 64.472 71.679 66.3631C69.9078 63.4849 66.7897 64.8871 65.4521 65.948C64.8986 61.2432 70.7104 61.3815 69.8801 58.1989Z" fill="#E7CE79"/>
<path fill-rule="evenodd" clip-rule="evenodd" d="M61.024 46.6328C61.024 59.6247 50.492 70.1568 37.5001 70.1568C24.5081 70.1568 13.9761 59.6247 13.9761 46.6328C13.9761 33.6409 24.5081 23.1088 37.5001 23.1088C50.492 23.1088 61.024 33.6409 61.024 46.6328ZM37.5001 67.3893C48.9635 67.3893 58.2565 58.0963 58.2565 46.6328C58.2565 35.1693 48.9635 25.8764 37.5001 25.8764C26.0366 25.8764 16.7436 35.1693 16.7436 46.6328C16.7436 58.0963 26.0366 67.3893 37.5001 67.3893Z" fill="#E7CE79"/>
<path d="M36.9465 18.1273C31.6328 18.1273 26.9834 19.3266 25.3229 19.9262V18.9576C26.9834 18.3579 31.6328 17.1587 36.9465 17.1587C42.2601 17.1587 46.9096 18.3579 48.5701 18.9576V19.9262C46.9096 19.3266 42.2601 18.1273 36.9465 18.1273Z" fill="#E7CE79"/>
<path d="M25.3229 21.7251C26.9834 21.1255 31.6328 19.9262 36.9465 19.9262C42.2601 19.9262 46.9096 21.1255 48.5701 21.7251V20.4797C46.9096 19.8801 42.2601 18.6808 36.9465 18.6808C31.6328 18.6808 26.9834 19.8801 25.3229 20.4797V21.7251Z" fill="#E7CE79"/>
<path fill-rule="evenodd" clip-rule="evenodd" d="M62.9612 46.6328C62.9612 60.6947 51.5618 72.0941 37.4999 72.0941C23.4381 72.0941 12.0387 60.6947 12.0387 46.6328C12.0387 32.571 23.4381 21.1716 37.4999 21.1716C51.5618 21.1716 62.9612 32.571 62.9612 46.6328ZM37.4999 71.2638C51.1033 71.2638 62.1309 60.2361 62.1309 46.6328C62.1309 33.0295 51.1033 22.0018 37.4999 22.0018C23.8966 22.0018 12.869 33.0295 12.869 46.6328C12.869 60.2361 23.8966 71.2638 37.4999 71.2638Z" fill="#E7CE79"/>
<path d="M14.9446 11.6236C18.3764 11.9557 23.2011 16.2823 25.1845 18.404C26.845 17.8044 31.4945 16.6052 36.8081 16.6052C42.1218 16.6052 46.7712 17.8044 48.4317 18.404C50.4151 16.2823 55.2398 11.9557 58.6716 11.6236C58.3026 11.0701 57.1218 10.1291 55.3505 10.7933C55.166 10.4705 54.631 9.82471 53.9668 9.82471C54.1513 10.8395 54.1882 12.8136 52.8598 12.5922C51.5314 12.3708 52.3985 10.9317 52.9981 10.2398C52.8136 10.1476 52.2509 10.0461 51.476 10.3782C51.107 10.0553 50.0092 9.52028 48.5701 9.96309C48.524 10.3782 48.5148 11.4022 48.8469 12.1771C48.6162 12.3155 48.1273 12.8413 48.0166 13.8376C49.4004 13.2841 51.8635 12.7029 50.6457 14.8063C49.1236 17.4354 44.0037 16.0516 44.6956 13.6992C43.0812 14.6218 39.7417 15.6919 39.2989 12.5922C38.7454 8.7177 41.928 8.99445 42.0664 10.3782C42.8044 9.82471 43.5886 7.6107 41.7897 7.05719C38.7454 6.12048 37.9151 10.5166 37.9151 11.3469H37.5C37.5 8.99447 38.607 6.36531 40.5443 6.22694C40.2214 5.62731 39.2712 4.62177 38.0535 5.39668V4.84317L38.7454 4.15129C38.0996 3.41328 36.8081 1.54982 36.8081 0C36.8081 1.54982 35.5166 3.41328 34.8708 4.15129L35.5627 4.84317V5.39668C34.345 4.62177 33.3948 5.62731 33.0719 6.22694C35.0092 6.36531 36.1162 8.99447 36.1162 11.3469H35.7011C35.7011 10.5166 34.8708 6.12048 31.8266 7.05719C30.0277 7.6107 30.8118 9.82471 31.5498 10.3782C31.6882 8.99445 34.8708 8.7177 34.3173 12.5922C33.8745 15.6919 30.535 14.6218 28.9207 13.6992C29.6125 16.0516 24.4926 17.4354 22.9705 14.8063C21.7528 12.7029 24.2159 13.2841 25.5996 13.8376C25.4889 12.8413 25 12.3155 24.7694 12.1771C25.1015 11.4022 25.0922 10.3782 25.0461 9.96309C23.607 9.52028 22.5092 10.0553 22.1402 10.3782C21.3653 10.0461 20.8026 10.1476 20.6181 10.2398C21.2177 10.9317 22.0849 12.3708 20.7564 12.5922C19.428 12.8136 19.4649 10.8395 19.6494 9.82471C18.9852 9.82471 18.4502 10.4705 18.2657 10.7933C16.4945 10.1291 15.3136 11.0701 14.9446 11.6236Z" fill="#E7CE79"/>
<path d="M47.7798 56.521C45.0857 59.4955 41.5626 60.9828 37.2105 60.9828C35.1137 60.9828 33.1327 60.611 31.2675 59.8674C29.4145 59.1237 27.8175 58.118 26.4765 56.8502C25.1477 55.5701 24.0932 54.0402 23.313 52.2603C22.545 50.4805 22.161 48.5909 22.161 46.5917C22.161 44.6168 22.5389 42.7516 23.2947 40.9961C24.0628 39.2284 25.099 37.7107 26.4034 36.4429C27.7078 35.175 29.2682 34.1754 31.0846 33.4439C32.901 32.7003 34.8211 32.3285 36.8447 32.3285C39.8681 32.3285 42.5805 33.0538 44.9821 34.5045M30.5613 36.4246C28.7205 37.4486 27.2698 38.8627 26.2092 40.667C25.1608 42.4712 24.6366 44.4705 24.6366 46.6648C24.6366 48.2862 24.9536 49.8222 25.5875 51.2729C26.2214 52.7236 27.0748 53.9731 28.1475 55.0215C29.2203 56.0699 30.8469 56.8989 32.3464 57.5085" stroke="#E7CE79" stroke-width="1.5"/>
<path d="M34.2018 47.7254C34.2018 47.7254 40.4678 47.7254 52.9999 47.7254C52.817 51.0169 51.5309 53.9488 49.1415 56.521C46.4474 59.4955 42.9243 60.9828 38.5722 60.9828C36.4754 60.9828 34.4944 60.611 32.6292 59.8674C30.7762 59.1237 29.1792 58.118 27.8382 56.8502C26.5094 55.5701 25.4549 54.0402 24.6747 52.2603C23.9067 50.4805 23.5227 48.5909 23.5227 46.5917C23.5227 44.6168 23.9006 42.7516 24.6564 40.9961C25.4245 39.2284 26.4607 37.7107 27.7651 36.4429C29.0695 35.175 30.6299 34.1754 32.4463 33.4439C34.2627 32.7003 36.1828 32.3285 38.2064 32.3285C41.2297 32.3285 43.9422 33.0538 46.3438 34.5045C48.7453 35.943 50.4033 37.8387 51.3176 40.1915C48.6862 39.5408 46.5904 37.5644 44.2043 36.2783C42.4854 35.3396 40.5593 34.8703 38.4259 34.8703C36.1706 34.8703 33.776 35.3884 31.923 36.4246C30.0822 37.4486 28.6315 38.8627 27.5709 40.667C26.5225 42.4712 25.9983 44.4705 25.9983 46.6648C25.9983 48.2862 26.3153 49.8222 26.9492 51.2729C27.5831 52.7236 28.4365 53.9731 29.5092 55.0215C30.582 56.0699 32.2086 56.8989 33.7081 57.5085C35.2075 58.118 36.7923 58.4228 38.4625 58.4228C41.8637 58.4228 44.6736 57.2768 46.8923 54.985C48.343 53.4611 49.2695 51.8763 49.6718 50.2306H42.9301C39.8433 50.2306 36.8187 49.3625 34.2018 47.7254Z" fill="#E7CE79"/>
</svg>
